<svg id="Layer_1" data-name="Layer 1" xmlns="http://www.w3.org/2000/svg" viewBox="0 0 250 91.91"><defs><style>.cls-1{fill:none;stroke:#70d461;stroke-miterlimit:10;stroke-width:3px;}</style></defs><path class="cls-1" d="M61.6,17.65a43.62,43.62,0,0,0-9.39-.95,73.18,73.18,0,0,0-22.83,4A61.79,61.79,0,0,0,10,31a25.28,25.28,0,0,0-7.23,9,13.37,13.37,0,0,0-1.19,5.4A29.3,29.3,0,0,0,5,59.76,31.3,31.3,0,0,0,15.18,70.59c9,6.13,22.62,10.06,40.23,11.76h0c22.77,2.2,45.47,4.46,68.11,4.46,6.87,0,13.72-.21,20.58-.68h0c22.43-1.57,45.46-4.28,67.19-11.22h0a137.17,137.17,0,0,0,13.56-5,64.18,64.18,0,0,0,15.82-9.38A23.63,23.63,0,0,0,247.32,52a14.42,14.42,0,0,0,1.15-5.6,15.91,15.91,0,0,0-.68-4.49l.29,1-.3-1a23.3,23.3,0,0,0-5.27-9.09A37.07,37.07,0,0,0,233.77,26C227.11,22,219.12,19.36,212,17.4c-4.77-1.32-9.16-2.33-12.57-3.23h0c-27.22-7.25-55.33-9.06-83.2-9.06C94.14,5.11,55,9.83,55,9.83"/></svg>