<svg id="Layer_1" data-name="Layer 1" xmlns="http://www.w3.org/2000/svg" viewBox="0 0 250 50.55"><defs><style>.cls-1{fill:#17402b;}.cls-2{fill:#70d461;}.cls-3{fill:#40b591;}</style></defs><path class="cls-1" d="M42.29,25.39c0-10.76,7.79-16.77,16.29-16.77,4.17,0,7.67,1.49,9.58,3.45v6.78a11.73,11.73,0,0,0-9-4.16c-5.71,0-10.47,3.8-10.47,10.7s4.76,10.77,10.47,10.77a11.6,11.6,0,0,0,9-4.23v6.78c-1.91,2-5.41,3.51-9.58,3.51C50.08,42.22,42.29,36.21,42.29,25.39Z"/><path class="cls-1" d="M74.79,0H81.4V41.63H74.79Z"/><path class="cls-1" d="M89.6,36h6.24A5,5,0,0,0,93.7,39.9c0,2,1.43,3.75,5.47,2.14l6.19-2.44C112.14,37,116.3,41,116.3,45.49a7.3,7.3,0,0,1-2,5.06h-6.36a4.55,4.55,0,0,0,1.9-3.33c0-1.67-1.31-3.16-5.23-1.55l-6,2.38c-7.49,3-11.42-1.19-11.42-6A8.87,8.87,0,0,1,89.6,36ZM88.23,21.82a12.9,12.9,0,0,1,13.26-13.2,13.52,13.52,0,0,1,7.08,2l2.85-7.31h6L114,11.83h-3.69a13.16,13.16,0,0,1,4.34,10,13.23,13.23,0,1,1-26.46,0Zm13.26,7.26a7.09,7.09,0,0,0,7.14-7.32,7.17,7.17,0,0,0-14.33,0A7.1,7.1,0,0,0,101.49,29.08Z"/><polygon class="cls-2" points="19.59 7.92 19.59 19.38 17.64 18.91 17.64 18.91 17.64 18.91 17.64 18.91 17.64 18.91 15.69 19.39 15.69 7.92 19.59 7.92"/><path class="cls-2" d="M19.59,31.14V43.2h-3.9V31.14c.66.39,1.33.72,2,1.07h0c.62-.35,1.29-.68,1.95-1.07"/><polygon class="cls-3" points="6.67 11.59 14.71 19.62 11.96 20.3 11.96 22.4 3.91 14.35 6.67 11.59"/><path class="cls-3" d="M31.61,36.52l-2.76,2.77-8.58-8.58a6.41,6.41,0,0,0,2.48-3Z"/><path class="cls-1" d="M12,24.24a9.8,9.8,0,0,0,.42,3H0V23.36H12Z"/><path class="cls-3" d="M35.28,23.36v3.91H22.9a10.11,10.11,0,0,0,.42-3v-.88Z"/><path class="cls-1" d="M15,30.7,6.43,39.29,3.66,36.53l8.87-8.87a6.42,6.42,0,0,0,2.48,3"/><polygon class="cls-1" points="31.36 14.36 23.32 22.39 23.32 20.3 20.57 19.62 28.6 11.6 31.36 14.36"/><path class="cls-2" d="M156.46,18a1.88,1.88,0,0,1-1.11,1.8,1.91,1.91,0,0,1,1.4,1.93c0,1.33-1.05,2.28-3,2.28h-2.89v-8.2h2.75C155.46,15.76,156.46,16.6,156.46,18Zm-2.89,1.29c.84,0,1.38-.42,1.38-1.12s-.5-1.09-1.39-1.09h-1.13v2.21Zm.08,3.44c1,0,1.53-.44,1.53-1.18s-.55-1.14-1.53-1.14h-1.22v2.32Z"/><path class="cls-2" d="M159.3,15.76h4.86v1.37h-3.28v2.06h3v1.22h-3V22.6h3.28V24H159.3Z"/><path class="cls-2" d="M166.88,15.76h1.58v6.72h3.46V24h-5Z"/><path class="cls-2" d="M174.19,15.76h1.58V24h-1.58Z"/><path class="cls-2" d="M178.83,15.76h4.86v1.37h-3.28v2.06h3v1.22h-3V22.6h3.28V24h-4.86Z"/><path class="cls-2" d="M190.21,24h-2l-2.73-8.2h1.7l2,6.72h0l2.06-6.72h1.62Z"/><path class="cls-2" d="M195.1,15.76H200v1.37h-3.28v2.06h3v1.22h-3V22.6H200V24H195.1Z"/><path class="cls-2" d="M207,15.76h1.58V24H207Z"/><path class="cls-2" d="M218.47,24h-1.53l-3.83-5.9V24h-1.48v-8.2h1.58L217,21.62V15.76h1.49Z"/><path class="cls-2" d="M225.83,15.76h1.59v6.72h3.45V24h-5Z"/><path class="cls-2" d="M233.14,15.76h1.58V24h-1.58Z"/><path class="cls-2" d="M237.78,15.76h4.86v1.48h-3.28v2.22h3V20.8h-3V24h-1.58Z"/><path class="cls-2" d="M245.14,15.76H250v1.37h-3.27v2.06h3v1.22h-3V22.6H250V24h-4.86Z"/><path class="cls-2" d="M157.48,41.63h-1.57l-.7-2.18h-3l-.7,2.18h-1.57l2.83-8.2h1.89Zm-2.66-3.4-1.08-3.4h0l-1.1,3.4Z"/><path class="cls-2" d="M159.63,33.43h4.86V34.9h-3.28v2.23h3v1.33h-3v3.17h-1.58Z"/><path class="cls-2" d="M168.7,34.9h-2.5V33.43h6.6V34.9h-2.51v6.73H168.7Z"/><path class="cls-2" d="M175.06,33.43h4.85v1.36h-3.27v2.06h3v1.23h-3v2.18h3.27v1.37h-4.85Z"/><path class="cls-2" d="M182.64,41.63v-8.2H185c2.2,0,3.25,1.14,3.25,2.64A2.63,2.63,0,0,1,186,38.59l2.61,3h-1.91l-2.44-3h-.07v3Zm2.45-4.17c1,0,1.57-.51,1.57-1.35s-.58-1.25-1.58-1.25h-.86v2.6Z"/><path class="cls-2" d="M201.89,37.51c0,2.47-1.8,4.12-4.65,4.12h-2v-8.2h2C200.08,33.43,201.89,35.08,201.89,37.51Zm-4.53,2.64c1.77,0,2.91-.95,2.91-2.62s-1.14-2.64-2.91-2.64h-.54v5.26Z"/><path class="cls-2" d="M204.43,33.43h4.86v1.36H206v2.06h3v1.23h-3v2.18h3.28v1.37h-4.86Z"/><path class="cls-2" d="M217.61,35.61a1.91,1.91,0,0,1-1.11,1.81,1.89,1.89,0,0,1,1.4,1.92c0,1.34-1,2.29-3,2.29H212v-8.2h2.75C216.61,33.43,217.61,34.27,217.61,35.61Zm-2.89,1.3c.84,0,1.38-.43,1.38-1.13s-.49-1.09-1.39-1.09h-1.13v2.22Zm.09,3.44c1,0,1.52-.44,1.52-1.19S215.78,38,214.81,38h-1.23v2.33Z"/><path class="cls-2" d="M222,34.9h-2.5V33.43h6.6V34.9h-2.5v6.73H222Z"/><path class="cls-2" d="M228.63,33.78h-.49V35.2h-.3V33.78h-.49v-.3h1.28Zm.36-.3h.34l.42,1.27h0l.41-1.27h.34l.27,1.72h-.29l-.19-1.28h0l-.42,1.28h-.23l-.42-1.27h0L229,35.2h-.29Z"/></svg>