<svg id="Layer_1" data-name="Layer 1" xmlns="http://www.w3.org/2000/svg" viewBox="0 0 250 222.73"><defs><style>.cls-1{fill:#4a9133;}.cls-2{fill:#40b591;}.cls-3{fill:#70d461;}.cls-4{fill:#17402b;}.cls-5{fill:#03785e;}.cls-6{fill:#ffb00f;}.cls-7{fill:#c7e8de;}.cls-8{fill:#ffd60f;}.cls-9{fill:#5f915e;}</style></defs><polygon class="cls-1" points="129.24 177.39 129.24 212.59 129.24 212.59 129.24 212.6 129.23 212.6 125 211.57 120.77 212.6 120.76 212.6 120.76 177.39 129.24 177.39 129.24 177.39"/><polygon class="cls-2" points="120.77 212.6 120.76 212.6 114.77 214.05 114.76 218.53 89.63 193.64 95.62 187.7 120.76 212.59 120.77 212.6 120.77 212.6"/><polygon class="cls-1" points="160.37 193.64 135.24 218.53 135.23 218.53 135.23 218.53 135.23 218.53 135.23 218.53 135.23 218.53 135.23 218.53 135.24 214.05 129.24 212.6 129.24 212.59 154.38 187.7 160.37 193.64 160.37 193.64"/><rect class="cls-3" x="50.02" y="187.52"/><polygon class="cls-4" points="50.02 132.05 50.02 167.26 50.02 167.26 50.02 167.26 50.02 167.26 45.79 166.23 41.55 167.26 41.55 167.26 41.55 132.05 50.02 132.05 50.02 132.05"/><path class="cls-3" d="M50,187.53v35.2H41.54v-35.2h0l.44.26,3.79,2.11,3.8-2.11.44-.26Z"/><polygon class="cls-5" points="41.55 167.26 41.55 167.26 35.55 168.72 35.55 173.19 10.41 148.3 16.41 142.36 41.55 167.26 41.55 167.26 41.55 167.26"/><path class="cls-5" d="M81.16,206.48l-6,5.94L50,187.53a12.5,12.5,0,0,0,5.07-5.94c.09-.23.18-.44.25-.67l.68.67h0l25.14,24.89Z"/><path class="cls-6" d="M36.48,181.59H0v-8.4H35.55v3.71c0,.28,0,.55,0,.84a12.22,12.22,0,0,0,.64,3.18c.08.23.16.44.26.67Z"/><path class="cls-5" d="M91.57,173.19v8.4H55.09c.09-.23.18-.44.25-.67a12.23,12.23,0,0,0,.65-3.18c0-.26,0-.53,0-.79v-3.76H91.57Z"/><path class="cls-6" d="M41.54,187.53,16.41,212.42l-6-5.94,25.14-24.89.67-.67c.08.23.16.44.26.67a12.54,12.54,0,0,0,5.06,5.94Z"/><polygon class="cls-7" points="81.16 148.3 56.02 173.19 56.02 173.19 56.02 173.19 56.02 173.19 56.02 173.19 56.02 173.19 56.02 173.19 56.02 168.72 50.02 167.26 50.02 167.26 75.16 142.36 81.16 148.3 81.16 148.3"/><polygon class="cls-7" points="208.45 132.05 208.45 167.26 208.45 167.26 208.45 167.26 208.45 167.26 204.22 166.23 199.98 167.26 199.97 167.26 199.97 132.05 208.45 132.05 208.45 132.05"/><rect class="cls-3" x="208.45" y="187.52"/><path class="cls-7" d="M208.45,187.53v35.2H200v-35.2h0l.44.26,3.79,2.11,3.8-2.11.44-.26Z"/><polygon class="cls-2" points="199.98 167.26 199.97 167.26 193.99 168.72 193.98 173.19 168.84 148.3 174.84 142.36 199.97 167.26 199.98 167.26 199.98 167.26"/><path class="cls-2" d="M239.59,206.48l-6,5.94-25.14-24.89a12.5,12.5,0,0,0,5.07-5.94c.09-.23.18-.44.26-.67l.67.67h0l25.14,24.89Z"/><path class="cls-6" d="M194.91,181.59H158.43v-8.4H194v3.71c0,.28,0,.55,0,.84a12.22,12.22,0,0,0,.64,3.18c.08.23.16.44.26.67Z"/><path class="cls-2" d="M250,173.19v8.4H213.52c.09-.23.18-.44.26-.67a12.65,12.65,0,0,0,.64-3.18c0-.26,0-.53,0-.79v-3.76H250Z"/><path class="cls-6" d="M200,187.53l-25.13,24.89-6-5.94L194,181.59l.67-.67c.08.23.16.44.26.67a12.54,12.54,0,0,0,5.06,5.94Z"/><polygon class="cls-6" points="239.59 148.3 214.45 173.19 214.45 173.19 214.45 173.19 214.45 173.19 214.45 173.19 214.45 173.19 214.45 173.19 214.45 168.72 208.45 167.26 208.45 167.26 233.59 142.36 239.59 148.3 239.59 148.3"/><rect class="cls-3" x="129.24" y="121.91" height="0.01"/><polygon class="cls-8" points="129.24 86.72 129.24 121.92 129.24 121.92 129.24 121.92 129.23 121.92 125 120.89 120.77 121.92 120.76 121.92 120.76 86.72 129.24 86.72 129.24 86.72"/><path class="cls-8" d="M129.24,142.19v35.2h-8.48v-35.2h0l.44.26,3.8,2.11,3.8-2.11.44-.26Z"/><polygon class="cls-2" points="120.77 121.92 120.76 121.92 114.77 123.38 114.76 127.85 89.63 102.97 95.62 97.03 120.76 121.92 120.77 121.92 120.77 121.92"/><path class="cls-4" d="M160.37,161.14l-6,6-25.14-24.9a12.46,12.46,0,0,0,5.07-5.94c.09-.22.17-.44.25-.67l.67.67h0l25.13,24.89Z"/><path class="cls-1" d="M115.69,136.25H79.21v-8.39h35.56v3.69c0,.29,0,.57,0,.85a12.57,12.57,0,0,0,.65,3.18c.08.23.16.45.25.67Z"/><path class="cls-4" d="M170.78,127.86v8.39H134.31c.09-.22.17-.44.25-.67a12.14,12.14,0,0,0,.64-3.18c0-.26,0-.53,0-.79v-3.75h35.55Z"/><path class="cls-1" d="M120.76,142.19l-25.14,24.9-6-6,25.14-24.89.67-.67c.08.23.16.45.25.67a12.46,12.46,0,0,0,5.07,5.94Z"/><polygon class="cls-1" points="160.37 102.97 135.24 127.86 135.23 127.86 135.23 127.86 135.23 127.86 135.23 127.86 135.23 127.86 135.23 127.86 135.24 123.38 129.24 121.92 129.24 121.92 154.38 97.03 160.37 102.97 160.37 102.97"/><polygon class="cls-9" points="50.02 41.38 50.02 76.58 50.02 76.58 50.02 76.59 50.02 76.59 45.79 75.55 41.55 76.59 41.55 76.59 41.55 41.38 50.02 41.38 50.02 41.38"/><rect class="cls-3" x="50.02" y="96.85" height="0.01"/><path class="cls-9" d="M50,96.86v35.19H41.54V96.86h0c.14.09.29.17.44.25l3.79,2.12,3.8-2.12a4.6,4.6,0,0,0,.44-.25Z"/><polygon class="cls-2" points="41.55 76.59 41.55 76.59 35.55 78.04 35.55 82.52 10.41 57.62 16.41 51.69 41.55 76.58 41.55 76.59 41.55 76.59"/><path class="cls-2" d="M81.16,115.81l-6,5.93L50,96.85a12.46,12.46,0,0,0,5.07-5.94,6.63,6.63,0,0,0,.25-.67l.68.67h0l25.14,24.9Z"/><path class="cls-7" d="M36.48,90.91H0V82.52H35.55v3.7c0,.28,0,.57,0,.84a12.06,12.06,0,0,0,.64,3.18,6.66,6.66,0,0,0,.26.67Z"/><path class="cls-2" d="M91.57,82.52v8.39H55.09a6.63,6.63,0,0,0,.25-.67A12.07,12.07,0,0,0,56,87.06c0-.26,0-.53,0-.79V82.52H91.57Z"/><path class="cls-7" d="M41.54,96.86,16.41,121.74l-6-5.93,25.14-24.9.67-.67a6.66,6.66,0,0,0,.26.67,12.61,12.61,0,0,0,5.06,6Z"/><rect class="cls-3" x="50.02" y="76.58" height="0.01"/><polygon class="cls-7" points="97.22 35.19 75.33 62.93 75.33 62.93 75.33 62.93 75.33 62.93 75.33 62.93 75.33 62.93 75.33 62.93 74.78 58.48 68.65 57.76 68.65 57.76 90.54 30.02 97.22 35.19 97.22 35.19"/><polygon class="cls-8" points="132.77 3.73 162.91 22.39 162.92 22.39 162.92 22.39 162.92 22.4 158.44 29.5 158.43 29.51 128.28 10.85 132.77 3.73 132.77 3.73"/><polygon class="cls-2" points="240.98 6.7 212.59 27.89 212.59 27.9 212.59 27.9 212.59 27.9 212.59 27.9 212.59 27.9 212.59 27.89 213.22 23.46 207.49 21.19 207.49 21.18 235.88 0 240.98 6.7 240.98 6.7"/></svg>