<svg id="Layer_1" data-name="Layer 1" xmlns="http://www.w3.org/2000/svg" viewBox="0 0 250 166.13"><defs><style>.cls-1{fill:#4a9133;}.cls-2{fill:#40b591;}.cls-3{fill:#c7e8de;}.cls-4{fill:#4a7559;}.cls-5{fill:#ffd60f;}.cls-6{fill:#03785e;}.cls-7{fill:#ffb00f;}</style></defs><polygon class="cls-1" points="161.56 55.38 161.56 98.36 161.56 98.36 161.56 98.38 161.56 98.38 156.27 97.12 150.98 98.38 150.97 98.38 150.97 55.38 161.56 55.38 161.56 55.38"/><path class="cls-1" d="M161.56,123.13v43H151v-43h0c.18.12.37.21.55.32l4.75,2.58,4.75-2.58c.19-.11.37-.2.54-.32Z"/><polygon class="cls-2" points="150.97 98.38 150.97 98.38 143.48 100.15 143.47 105.62 112.05 75.22 119.54 67.96 150.97 98.36 150.97 98.38 150.97 98.38"/><path class="cls-2" d="M200.49,146.28l-7.5,7.25-31.43-30.4a15.34,15.34,0,0,0,6.34-7.25c.12-.28.23-.55.32-.82l.84.82h0l31.43,30.4Z"/><path class="cls-3" d="M144.63,115.88H99V105.62h44.44v4.51c0,.35,0,.69,0,1a14.55,14.55,0,0,0,.8,3.89c.1.27.2.54.32.82Z"/><path class="cls-2" d="M213.51,105.62v10.26H167.9c.12-.28.23-.55.32-.82a15,15,0,0,0,.81-3.89c0-.32,0-.65,0-1v-4.57h44.45Z"/><path class="cls-4" d="M151,123.13l-31.43,30.4-7.49-7.25,31.42-30.4.84-.82c.1.27.2.54.32.82a15.45,15.45,0,0,0,6.34,7.25Z"/><polygon class="cls-1" points="200.49 75.22 169.06 105.62 169.06 105.63 169.06 105.63 169.06 105.63 169.06 105.63 169.06 105.63 169.06 105.62 169.06 100.15 161.56 98.38 161.56 98.36 192.99 67.96 200.49 75.22 200.49 75.22"/><polygon class="cls-5" points="62.53 0 62.53 43 62.53 43 62.53 43.01 62.53 43.01 57.24 41.74 51.95 43.01 51.94 43.01 51.94 0 62.53 0 62.53 0"/><path class="cls-4" d="M62.54,67.76v43H51.94v-43h0l.55.32,4.75,2.57L62,68.08l.55-.32Z"/><polygon class="cls-6" points="51.94 43.01 51.94 43.01 44.45 44.78 44.44 50.25 13.02 19.85 20.51 12.6 51.94 43 51.94 43.01 51.94 43.01"/><path class="cls-6" d="M101.46,90.9,94,98.15,62.54,67.76a15.38,15.38,0,0,0,6.33-7.25c.12-.27.23-.55.32-.82l.85.81h0L101.46,90.9Z"/><path class="cls-7" d="M45.6,60.51H0V50.25H44.44v4.52c0,.35,0,.69,0,1a15,15,0,0,0,.8,3.88c.1.27.21.55.32.82Z"/><path class="cls-6" d="M114.48,50.25V60.51H68.87c.12-.27.23-.55.32-.82A14.57,14.57,0,0,0,70,55.81c0-.32,0-.66,0-1V50.25h44.44Z"/><path class="cls-7" d="M51.94,67.76,20.51,98.15,13,90.9,44.44,60.5l.84-.81c.1.27.21.55.32.82a15.45,15.45,0,0,0,6.34,7.25Z"/><polygon class="cls-3" points="101.46 19.85 70.04 50.25 70.04 50.25 70.04 50.25 70.04 50.25 70.04 50.25 70.04 50.25 70.04 50.25 70.04 44.78 62.53 43.01 62.53 43 93.96 12.6 101.46 19.85 101.46 19.85"/><polygon class="cls-2" points="250 43.01 250 43.01 242.51 44.78 242.5 50.25 211.08 19.85 218.57 12.6 250 43 250 43.01 250 43.01"/><path class="cls-7" d="M243.66,60.51h-45.6V50.25H242.5v4.52c0,.35,0,.69,0,1a14.56,14.56,0,0,0,.8,3.88c.1.27.2.55.32.82Z"/><path class="cls-7" d="M250,67.76,218.57,98.15l-7.49-7.25L242.5,60.5l.84-.81c.1.27.2.55.32.82A15.48,15.48,0,0,0,250,67.76Z"/><path class="cls-5" d="M161.56,12.39v43H151v-43h0c.18.11.37.22.55.31l4.75,2.58L161,12.7a4.74,4.74,0,0,0,.54-.31Z"/><path class="cls-6" d="M200.49,35.53,193,42.78l-31.43-30.4a15.25,15.25,0,0,0,6.34-7.25,7.34,7.34,0,0,0,.32-.82l.84.82h0l31.43,30.4Z"/><path class="cls-1" d="M151,12.38l-31.43,30.4-7.49-7.25,31.42-30.4.84-.82c.1.29.2.55.32.82A15.41,15.41,0,0,0,151,12.38Z"/></svg>